Coordinates
version=1
nRows=24
nColumns=24
inDegrees=yes

Units are S.I. units (second, meters, Newtons, ...)
Angles are in degrees.

endheader
time	pelvis_tilt	pelvis_list	pelvis_rotation	pelvis_tx	pelvis_ty	pelvis_tz	hip_flexion_r	hip_adduction_r	hip_rotation_r	knee_angle_r	ankle_angle_r	subtalar_angle_r	mtp_angle_r	hip_flexion_l	hip_adduction_l	hip_rotation_l	knee_angle_l	ankle_angle_l	subtalar_angle_l	mtp_angle_l	lumbar_extension	lumbar_bending	lumbar_rotation
      0.75900000	      1.49915329	      0.99414902	     11.12087495	      0.03922567	      0.98903100	      0.22179967	     27.37493108	     -5.21254178	    -10.31019718	     -1.73357399	      8.94937417	     -6.39116113	      5.64854627	    -20.97375656	      0.75486484	     13.29614689	    -10.82152893	     17.64604215	     -4.14882572	     -2.00374587	     -4.39622041	     -2.44781924	    -10.02649742
      0.76316667	      1.51769317	      0.91442557	     11.35361777	      0.04556270	      0.98840758	      0.22213503	     27.35039125	     -5.18910324	    -10.24606614	     -2.40422208	      8.95182834	     -6.84314847	      5.67319878	    -21.14658963	      0.49538689	     13.22866249	    -11.17035099	     17.52099453	     -3.87877591	     -1.98820392	     -4.30797124	     -2.35019344	    -10.27122945
      0.76733333	      1.54757949	      0.82221469	     11.58374986	      0.05197643	      0.98782141	      0.22249690	     27.29184633	     -5.13940680	    -10.18368914	     -3.03900382	      8.87741249	     -7.33061012	      5.71161753	    -21.34082382	      0.21875052	     13.20256634	    -11.49458979	     17.33342294	     -3.66853004	     -1.94546446	     -4.21255258	     -2.23933865	    -10.47094105
      0.77150000	      1.57915236	      0.73437618	     11.83271813	      0.05842235	      0.98727751	      0.22284682	     27.21934305	     -5.09836644	    -10.20011554	     -3.66452254	      8.81786179	     -7.71480949	      5.73820967	    -21.51794296	     -0.05912321	     13.19708023	    -11.85382469	     17.08210907	     -3.53712169	     -1.91395209	     -4.10006451	     -2.14709139	    -10.58104936
      0.77566667	      1.61397582	      0.62539920	     12.04532336	      0.06492854	      0.98672657	      0.22330796	     27.12211367	     -4.99645236	    -10.07068744	     -4.21550624	      8.49343815	     -8.40550635	      5.83611524	    -21.69305092	     -0.35784838	     13.10430235	    -12.21939297	     16.91421603	     -3.28272428	     -1.77419684	     -4.03046368	     -2.02264830	    -10.89017434
      0.77983333	      1.63773808	      0.50638371	     12.26689900	      0.07150662	      0.98620518	      0.22376917	     27.02675463	     -4.88697139	    -10.02175723	     -4.75034708	      8.17392569	     -8.98070644	      5.96673012	    -21.84881253	     -0.66871800	     13.03154000	    -12.59024442	     16.65435776	     -3.08434194	     -1.59058223	     -3.90368818	     -1.89738552	    -11.07399151
      0.78400000	      1.67838673	      0.37706958	     12.48285763	      0.07813254	      0.98572454	      0.22425195	     26.90546796	     -4.75444358	     -9.99002349	     -5.25804814	      7.78489294	     -9.56478002	      6.12963264	    -22.01766106	     -0.99431469	     12.94934805	    -12.96253025	     16.35902459	     -2.89530128	     -1.35849767	     -3.79075975	     -1.75838707	    -11.25924759
      0.78816667	      1.70217815	      0.24064746	     12.69161667	      0.08480616	      0.98524944	      0.22477861	     26.79779269	     -4.60648534	     -9.96391169	     -5.74085805	      7.31149755	    -10.16403645	      6.32726129	    -22.15630794	     -1.32374324	     12.85740089	    -13.35237292	     16.02764371	     -2.71470614	     -1.07441324	     -3.64792657	     -1.62310389	    -11.42984004
      0.79233333	      1.75109080	      0.08451764	     12.89028725	      0.09153202	      0.98482916	      0.22533012	     26.65740142	     -4.42255340	     -9.95234065	     -6.19029469	      6.74847698	    -10.77723813	      6.55628875	    -22.31556024	     -1.67810183	     12.73963159	    -13.74223563	     15.66253367	     -2.53725281	     -0.73996299	     -3.52367906	     -1.45883327	    -11.58907741
      0.79650000	      1.78566127	     -0.05862592	     13.06839030	      0.09828781	      0.98441892	      0.22595135	     26.53594414	     -4.23713238	     -9.90213343	     -6.62856990	      6.08294563	    -11.44740369	      6.91870261	    -22.45933025	     -2.01392690	     12.61204888	    -14.12687553	     15.22518938	     -2.31136768	     -0.20937403	     -3.38173091	     -1.33257032	    -11.73711819
      0.80066667	      1.82376438	     -0.25499919	     13.25070163	      0.10510028	      0.98403124	      0.22655631	     26.41299998	     -3.99966180	     -9.93644531	     -7.04539725	      5.37318419	    -12.04874057	      7.20866759	    -22.57221943	     -2.40126616	     12.45407328	    -14.56667590	     14.82185374	     -2.20880290	      0.22953370	     -3.21689176	     -1.12113110	    -11.86884336
      0.80483333	      1.83306796	     -0.44654665	     13.37658098	      0.11196472	      0.98359877	      0.22727432	     26.35643530	     -3.75023782	     -9.93313949	     -7.50954946	      4.63008894	    -12.58500762	      9.59186419	    -22.65110348	     -2.77255096	     12.15573988	    -14.99862139	     14.27642598	     -1.90852619	      3.85133304	     -2.99966254	     -0.93341034	    -11.76024012
      0.80900000	      1.88831476	     -0.65087887	     13.54590839	      0.11881989	      0.98331166	      0.22790186	     26.24044981	     -3.49804367	    -10.02928678	     -7.95147266	      3.81404908	    -13.08386307	      9.61312473	    -22.78492524	     -3.15824478	     12.09702687	    -15.41334790	     13.75213112	     -1.93423691	      3.93478845	     -2.86738690	     -0.69998766	    -12.05011894
      0.81316667	      1.93385905	     -0.85012301	     13.67176379	      0.12569006	      0.98301734	      0.22866049	     26.14060573	     -3.21800956	     -9.98658316	     -8.37831078	      2.93647030	    -13.76586611	      9.69331290	    -22.87356412	     -3.53589705	     11.86045960	    -15.89122933	     13.19294938	     -1.80152251	      4.13178903	     -2.70587838	     -0.52834153	    -12.14244481
      0.81733333	      1.97698145	     -1.06473960	     13.76813175	      0.13258293	      0.98274747	      0.22946550	     26.07204516	     -2.91505243	     -9.95049378	     -8.84891284	      2.05829875	    -14.35642131	      9.83372799	    -22.95298394	     -3.91642007	     11.60803914	    -16.37280497	     12.59437178	     -1.63682302	      4.45737261	     -2.54450849	     -0.31273606	    -12.20126866
      0.82150000	      2.02277969	     -1.29916615	     13.84423805	      0.13950568	      0.98250373	      0.23030467	     26.02065183	     -2.58366232	     -9.91217959	     -9.34653489	      1.18524912	    -14.92112584	     10.05473150	    -23.01815537	     -4.31069895	     11.31255402	    -16.87636767	     11.95446780	     -1.48905878	      4.97335529	     -2.37334059	     -0.07754930	    -12.23964072
      0.82566667	      2.05924276	     -1.57121528	     13.90710395	      0.14646585	      0.98226051	      0.23114322	     26.01523779	     -2.22249718	     -9.93995385	     -9.91022877	      0.41504874	    -15.36562566	     10.22415816	    -23.05085340	     -4.72972403	     10.99975945	    -17.41565857	     11.32776849	     -1.43779799	      5.40051873	     -2.14942087	      0.21147902	    -12.25684874
      0.82983333	      2.11526117	     -1.80796525	     13.93765757	      0.15337044	      0.98209342	      0.23208606	     25.99856402	     -1.86806864	     -9.84503895	    -10.48989372	     -0.42539288	    -15.89948266	     10.50811167	    -23.09126079	     -5.11244526	     10.64376759	    -17.97123930	     10.57717933	     -1.25515886	      6.16957783	     -2.01966583	      0.43885933	    -12.24250969
      0.83400000	      2.18576106	     -2.08854744	     13.94963240	      0.16033378	      0.98195087	      0.23299591	     26.02386306	     -1.48913179	     -9.91978331	    -11.19537406	     -1.00468817	    -16.05608634	     12.12814906	    -23.13512491	     -5.53251251	     10.24199900	    -18.52709397	      9.71203081	     -1.20828797	     11.04468206	     -1.85492167	      0.75868892	    -12.22266360
      0.83816667	      2.20204077	     -2.35018287	     13.92616367	      0.16727142	      0.98177273	      0.23399632	     26.12110731	     -1.11657735	     -9.85370928	    -11.93116139	     -1.61441691	    -16.36576999	     12.11508301	    -23.10356627	     -5.89829645	      9.86869345	    -19.13680117	      8.89034439	     -1.19012534	     11.14921093	     -1.63884066	      1.01622578	    -12.18952083
      0.84233333	      2.26330133	     -2.61433765	     13.88471008	      0.17420817	      0.98168845	      0.23499361	     26.20169817	     -0.74015479	     -9.85412570	    -12.74971577	     -2.02222046	    -16.42314840	     12.11087054	    -23.10701950	     -6.26863797	      9.45831517	    -19.76131318	      8.00089792	     -1.17472852	     11.19493294	     -1.47170415	      1.30843218	    -12.17531118
      0.84650000	      2.32116231	     -2.92675474	     13.80475144	      0.18118011	      0.98159103	      0.23610702	     26.28774036	     -0.27775961	     -9.72116413	    -13.53705445	     -2.55799663	    -16.81251892	     12.10898692	    -23.07742640	     -6.68463651	      8.93327991	    -20.43483826	      7.15559172	     -1.06826498	     11.53481163	     -1.30351360	      1.63732263	    -12.02551015
      0.85066667	      2.39660977	     -3.18448422	     13.72508120	      0.18808497	      0.98158532	      0.23717648	     26.38741563	      0.10541178	     -9.68943803	    -14.44491755	     -2.82856339	    -16.79902158	     12.10620516	    -23.05585124	     -7.03700388	      8.47699036	    -21.12259957	      6.14993100	     -1.05723491	     11.62522625	     -1.17595954	      1.92119875	    -12.01677355
      0.85483333	      2.49149369	     -3.49153745	     13.60913426	      0.19503236	      0.98159222	      0.23835406	     26.46777449	      0.57548080	     -9.57169660	    -15.33110955	     -3.10796191	    -16.97345478	     11.93907101	    -23.03378317	     -7.44713061	      7.89811183	    -21.82700209	      5.05295029	     -1.01903529	     16.61966604	     -1.07743301	      2.26488977	    -11.90771669
